# xmcd CD database file
# Copyright (C) 1997 Ti Kan
#
# Track frame offsets:
#  150
#  21850
#  42818
#  59670
#  79021
#  98814
#  120601
#  134983
#  143228
#  163836
#  184248
#  206003
#  222340
#  239391
#  258172
#  278814
#
# Disc length: 3980 seconds
#
# Revision: 1
# Processed by: cddbd v1.4b41PL1 Copyright (c) Steve Scherf et al.
# Submitted via: CDWizzard Release:4.32
#
DISCID=f50f8a10
DTITLE=Diverse - Fresh Up
DYEAR=1900
DGENRE=
TTITLE0=Dancing in the Streets
TTITLE1=Up and Down
TTITLE2=Fiddle Dream
TTITLE3=Everything I Need
TTITLE4=Come Together
TTITLE5=Blue Morning Rain
TTITLE6=Guilty
TTITLE7=Mir ist schlecht
TTITLE8=Slonce
TTITLE9=Chill Out
TTITLE10=Alles was ich will
TTITLE11=Kleiner Mensch
TTITLE12=This War
TTITLE13=Mission Bell
TTITLE14=Was ist los?
TTITLE15=On their own
EXTD=
EXTT0=Lev Dream-Team
EXTT1=The Sentinels
EXTT2=Garlic Stench
EXTT3=My lovely Mr. Singing Club
EXTT4=Velvet Green
EXTT5=Dante's View
EXTT6=Brilliant Mistake
EXTT7=Stoned Age
EXTT8=Jois
EXTT9=Picture Book
EXTT10=Die Cousinen
EXTT11=Forced to Decay
EXTT12=Soulsmoke
EXTT13=Strait Noir
EXTT14=Combo Guano
EXTT15=AOR
PLAYORDER=
